<svg viewBox="0 0 1200 600" xmlns="http://www.w3.org/2000/svg">
  <defs>
    <linearGradient id="eco-gradient" x1="0%" y1="0%" x2="100%" y2="100%">
      <stop offset="0%" style="stop-color:#059669;stop-opacity:1" />
      <stop offset="100%" style="stop-color:#06b6d4;stop-opacity:1" />
    </linearGradient>
    <linearGradient id="eco-accent" x1="0%" y1="0%" x2="100%" y2="100%">
      <stop offset="0%" style="stop-color:#10b981;stop-opacity:1" />
      <stop offset="100%" style="stop-color:#14b8a6;stop-opacity:1" />
    </linearGradient>
  </defs>

  <!-- Background -->
  <rect width="1200" height="600" fill="url(#eco-gradient)"/>

  <!-- Leaf decorations -->
  <g opacity="0.1">
    <circle cx="150" cy="80" r="100" fill="#10b981"/>
    <circle cx="1050" cy="520" r="140" fill="#06b6d4"/>
  </g>

  <!-- Shopping products display -->
  <g transform="translate(100, 120)">
    <!-- Product Card 1 -->
    <rect x="0" y="0" width="160" height="240" fill="#ffffff" opacity="0.12" rx="12" stroke="#10b981" stroke-width="2" stroke-opacity="0.3"/>
    <rect x="10" y="10" width="140" height="140" fill="url(#eco-accent)" rx="8" opacity="0.6"/>
    <circle cx="80" cy="80" r="30" fill="#f59e0b" opacity="0.5"/>
    <text x="80" y="130" font-family="Arial, sans-serif" font-size="14" fill="#ffffff" font-weight="bold" text-anchor="middle">Produit 1</text>
    <text x="80" y="160" font-family="Arial, sans-serif" font-size="18" fill="#10b981" font-weight="bold" text-anchor="middle">€89</text>

    <!-- Product Card 2 -->
    <rect x="190" y="20" width="160" height="240" fill="#ffffff" opacity="0.12" rx="12" stroke="#10b981" stroke-width="2" stroke-opacity="0.3"/>
    <rect x="200" y="30" width="140" height="140" fill="url(#eco-accent)" rx="8" opacity="0.6"/>
    <circle cx="270" cy="100" r="30" fill="#8b5cf6" opacity="0.5"/>
    <text x="270" y="160" font-family="Arial, sans-serif" font-size="14" fill="#ffffff" font-weight="bold" text-anchor="middle">Produit 2</text>
    <text x="270" y="190" font-family="Arial, sans-serif" font-size="18" fill="#10b981" font-weight="bold" text-anchor="middle">€124</text>

    <!-- Product Card 3 -->
    <rect x="380" y="0" width="160" height="240" fill="#ffffff" opacity="0.12" rx="12" stroke="#10b981" stroke-width="2" stroke-opacity="0.3"/>
    <rect x="390" y="10" width="140" height="140" fill="url(#eco-accent)" rx="8" opacity="0.6"/>
    <circle cx="460" cy="80" r="30" fill="#06b6d4" opacity="0.5"/>
    <text x="460" y="130" font-family="Arial, sans-serif" font-size="14" fill="#ffffff" font-weight="bold" text-anchor="middle">Produit 3</text>
    <text x="460" y="160" font-family="Arial, sans-serif" font-size="18" fill="#10b981" font-weight="bold" text-anchor="middle">€76</text>
  </g>

  <!-- Stats boxes -->
  <g transform="translate(650, 120)">
    <!-- Transactions -->
    <rect x="0" y="0" width="200" height="100" fill="#ffffff" opacity="0.1" rx="8" backdropFilter="blur(20px)"/>
    <text x="20" y="35" font-family="Arial, sans-serif" font-size="14" fill="#06b6d4">Transactions</text>
    <text x="20" y="70" font-family="Arial, sans-serif" font-size="36" fill="#10b981" font-weight="bold">8.2K</text>

    <!-- Revenue -->
    <rect x="0" y="120" width="200" height="100" fill="#ffffff" opacity="0.1" rx="8"/>
    <text x="20" y="155" font-family="Arial, sans-serif" font-size="14" fill="#06b6d4">Croissance</text>
    <text x="20" y="190" font-family="Arial, sans-serif" font-size="36" fill="#10b981" font-weight="bold">+450%</text>

    <!-- AOV -->
    <rect x="220" y="0" width="200" height="100" fill="#ffffff" opacity="0.1" rx="8"/>
    <text x="240" y="35" font-family="Arial, sans-serif" font-size="14" fill="#06b6d4">Augmentation AOV</text>
    <text x="240" y="70" font-family="Arial, sans-serif" font-size="36" fill="#10b981" font-weight="bold">+35%</text>

    <!-- Retention -->
    <rect x="220" y="120" width="200" height="100" fill="#ffffff" opacity="0.1" rx="8"/>
    <text x="240" y="155" font-family="Arial, sans-serif" font-size="14" fill="#06b6d4">Rétention</text>
    <text x="240" y="190" font-family="Arial, sans-serif" font-size="36" fill="#10b981" font-weight="bold">68%</text>
  </g>

  <!-- Title -->
  <text x="100" y="520" font-family="Arial, sans-serif" font-size="48" fill="#ffffff" font-weight="bold">EcoShop</text>
  <text x="100" y="560" font-family="Arial, sans-serif" font-size="20" fill="#10b981">E-commerce durable et écologique</text>

  <!-- Badge -->
  <rect x="1000" y="30" width="150" height="50" fill="#f59e0b" opacity="0.8" rx="8"/>
  <text x="1075" y="63" font-family="Arial, sans-serif" font-size="16" fill="#ffffff" font-weight="bold" text-anchor="middle">TOP VENTES 💚</text>
</svg>