<svg viewBox="0 0 1200 600" xmlns="http://www.w3.org/2000/svg">
  <!-- Gradient Background -->
  <defs>
    <linearGradient id="tech-gradient" x1="0%" y1="0%" x2="100%" y2="100%">
      <stop offset="0%" style="stop-color:#3b82f6;stop-opacity:1" />
      <stop offset="100%" style="stop-color:#1e40af;stop-opacity:1" />
    </linearGradient>
    <linearGradient id="accent-gradient" x1="0%" y1="0%" x2="100%" y2="100%">
      <stop offset="0%" style="stop-color:#60a5fa;stop-opacity:1" />
      <stop offset="100%" style="stop-color:#3b82f6;stop-opacity:1" />
    </linearGradient>
  </defs>

  <!-- Background -->
  <rect width="1200" height="600" fill="url(#tech-gradient)"/>

  <!-- Animated circles background -->
  <circle cx="150" cy="100" r="80" fill="#60a5fa" opacity="0.1"/>
  <circle cx="1000" cy="500" r="120" fill="#93c5fd" opacity="0.1"/>
  <circle cx="600" cy="50" r="60" fill="#bfdbfe" opacity="0.08"/>

  <!-- Grid pattern -->
  <defs>
    <pattern id="grid" width="50" height="50" patternUnits="userSpaceOnUse">
      <path d="M 50 0 L 0 0 0 50" fill="none" stroke="#ffffff" stroke-width="0.5" opacity="0.05"/>
    </pattern>
  </defs>
  <rect width="1200" height="600" fill="url(#grid)"/>

  <!-- Chart/Dashboard visualization -->
  <g transform="translate(100, 150)">
    <!-- Chart bars -->
    <rect x="0" y="180" width="40" height="140" fill="#93c5fd" opacity="0.8" rx="4"/>
    <rect x="60" y="150" width="40" height="170" fill="#60a5fa" opacity="0.8" rx="4"/>
    <rect x="120" y="100" width="40" height="220" fill="#3b82f6" opacity="0.9" rx="4"/>
    <rect x="180" y="120" width="40" height="200" fill="#60a5fa" opacity="0.8" rx="4"/>
    <rect x="240" y="80" width="40" height="240" fill="#93c5fd" opacity="0.8" rx="4"/>

    <!-- Chart baseline -->
    <line x1="-20" y1="320" x2="300" y2="320" stroke="#ffffff" stroke-width="2" opacity="0.3"/>
  </g>

  <!-- Dashboard elements -->
  <g transform="translate(550, 150)">
    <!-- Panel 1 -->
    <rect x="0" y="0" width="180" height="140" fill="#ffffff" opacity="0.08" rx="8" backdropFilter="blur(20px)"/>
    <circle cx="30" cy="30" r="15" fill="#60a5fa" opacity="0.6"/>
    <text x="60" y="50" font-family="Arial, sans-serif" font-size="18" fill="#ffffff" font-weight="bold">45K+</text>
    <text x="60" y="75" font-family="Arial, sans-serif" font-size="11" fill="#93c5fd">Utilisateurs</text>

    <!-- Panel 2 -->
    <rect x="220" y="0" width="180" height="140" fill="#ffffff" opacity="0.08" rx="8"/>
    <circle cx="250" cy="30" r="15" fill="#60a5fa" opacity="0.6"/>
    <text x="280" y="50" font-family="Arial, sans-serif" font-size="18" fill="#ffffff" font-weight="bold">99.95%</text>
    <text x="280" y="75" font-family="Arial, sans-serif" font-size="11" fill="#93c5fd">Uptime</text>

    <!-- Panel 3 -->
    <rect x="0" y="160" width="180" height="140" fill="#ffffff" opacity="0.08" rx="8"/>
    <circle cx="30" cy="190" r="15" fill="#60a5fa" opacity="0.6"/>
    <text x="60" y="210" font-family="Arial, sans-serif" font-size="18" fill="#ffffff" font-weight="bold">+320%</text>
    <text x="60" y="235" font-family="Arial, sans-serif" font-size="11" fill="#93c5fd">Croissance ROI</text>

    <!-- Panel 4 -->
    <rect x="220" y="160" width="180" height="140" fill="#ffffff" opacity="0.08" rx="8"/>
    <circle cx="250" cy="190" r="15" fill="#60a5fa" opacity="0.6"/>
    <text x="280" y="210" font-family="Arial, sans-serif" font-size="18" fill="#ffffff" font-weight="bold">1.2s</text>
    <text x="280" y="235" font-family="Arial, sans-serif" font-size="11" fill="#93c5fd">Performance</text>
  </g>

  <!-- Title -->
  <text x="100" y="520" font-family="Arial, sans-serif" font-size="48" fill="#ffffff" font-weight="bold">TechFlow SaaS</text>
  <text x="100" y="560" font-family="Arial, sans-serif" font-size="20" fill="#93c5fd">Platform complète avec analytics avancé</text>

  <!-- Badge -->
  <rect x="1000" y="30" width="150" height="50" fill="#10b981" opacity="0.8" rx="8"/>
  <text x="1075" y="63" font-family="Arial, sans-serif" font-size="16" fill="#ffffff" font-weight="bold" text-anchor="middle">RÉUSSI 🚀</text>
</svg>